<?xml version="1.0" encoding="utf-8"?>
<svg id="exPVnD9AMkp1" viewBox="0 0 200 35" shape-rendering="geometricPrecision" text-rendering="geometricPrecision" xmlns="http://www.w3.org/2000/svg">
  <path d="M -0.266 17.166 C -0.266 17.166 16.279 10.024 23.813 10.024 C 38.026 10.024 49.15 19.568 60.057 23.526 C 89.43 34.186 115.013 17.166 115.013 17.166 C 115.013 17.166 132.032 5.054 140.597 4.102 C 146.993 3.391 152.22 6.515 155.52 10.024 C 171.155 26.647 170.444 39.634 181.814 25.184 C 187.65 17.769 199.735 17.166 199.735 17.166" fill="none" stroke="#fbfbfb" stroke-dasharray="0" style="stroke-linecap: round; stroke-width: 3px;"/>
  <path d="M -0.302 26.476 C -0.302 26.476 13.161 5.422 20.695 5.422 C 34.908 5.422 36.098 20.536 45.993 24.884 C 68.276 34.675 88.186 13.716 103.07 4.736 C 112.37 -0.876 122.803 15.776 130.235 20.138 C 130.517 20.303 138.685 27.035 148.254 26.85 C 155.847 26.703 161.836 25.04 174.662 11.866 C 185.801 0.425 200.24 27.028 200.24 27.028" fill="none" stroke="#fbfbfb" stroke-dasharray="0" style="stroke-linecap: round; stroke-width: 2px;"/>
</svg>